HIERARCHY
ROOT Hips
{
  OFFSET 57.8838 95.319 338.509
  CHANNELS 6 Xposition Yposition Zposition Zrotation Xrotation Yrotation
  JOINT LeftUpLeg
  {
    OFFSET 8.64259 1.95398 -2.38835
    CHANNELS 3 Zrotation Xrotation Yrotation
    JOINT LeftLeg
    {
      OFFSET 43.7702 0 0
      CHANNELS 3 Zrotation Xrotation Yrotation
      JOINT LeftFoot
      {
        OFFSET 40.6238 0 0
        CHANNELS 3 Zrotation Xrotation Yrotation
        JOINT LeftToeBase
        {
          OFFSET 12.7242 0 0
          CHANNELS 3 Zrotation Xrotation Yrotation
          End Site
          {
            OFFSET 0 0 0
          }
        }
      }
    }
  }
  JOINT RightUpLeg
  {
    OFFSET -8.2249 1.95398 -2.59336
    CHANNELS 3 Zrotation Xrotation Yrotation
    JOINT RightLeg
    {
      OFFSET 43.5653 0 0
      CHANNELS 3 Zrotation Xrotation Yrotation
      JOINT RightFoot
      {
        OFFSET 40.6238 0 0
        CHANNELS 3 Zrotation Xrotation Yrotation
        JOINT RightToeBase
        {
          OFFSET 12.7242 0 0
          CHANNELS 3 Zrotation Xrotation Yrotation
          End Site
          {
            OFFSET 0 0 0
          }
        }
      }
    }
  }
  JOINT Spine
  {
    OFFSET 0.165834 0.87714 6.61349
    CHANNELS 3 Zrotation Xrotation Yrotation
    JOINT Spine1
    {
      OFFSET 7.38963 1.71661e-005 0
      CHANNELS 3 Zrotation Xrotation Yrotation
      JOINT Spine2
      {
        OFFSET 11.9445 1.14441e-005 0
        CHANNELS 3 Zrotation Xrotation Yrotation
        JOINT Spine3
        {
          OFFSET 14.7254 4.19617e-005 0
          CHANNELS 3 Zrotation Xrotation Yrotation
          JOINT Spine4
          {
            OFFSET 10.9679 0 0
            CHANNELS 3 Zrotation Xrotation Yrotation
            JOINT RightShoulder
            {
              OFFSET 2.46616 -1.6653 3.69651
              CHANNELS 3 Zrotation Xrotation Yrotation
              JOINT RightArm
              {
                OFFSET 13.0012 0 0
                CHANNELS 3 Zrotation Xrotation Yrotation
                JOINT RightForeArm
                {
                  OFFSET 28.7848 1.62311e-005 0
                  CHANNELS 3 Zrotation Xrotation Yrotation
                  JOINT RightHand
                  {
                    OFFSET 26.5688 1.62095e-005 0
                    CHANNELS 3 Zrotation Xrotation Yrotation
                    End Site
                    {
                      OFFSET 0 0 0
                    }
                  }
                }
              }
            }
            JOINT LeftShoulder
            {
              OFFSET 2.38034 -1.29275 -3.7523
              CHANNELS 3 Zrotation Xrotation Yrotation
              JOINT LeftArm
              {
                OFFSET 16.3182 6.07031e-005 0
                CHANNELS 3 Zrotation Xrotation Yrotation
                JOINT LeftForeArm
                {
                  OFFSET 27.0901 0 0
                  CHANNELS 3 Zrotation Xrotation Yrotation
                  JOINT LeftHand
                  {
                    OFFSET 24.5451 1.51738e-005 0
                    CHANNELS 3 Zrotation Xrotation Yrotation
                    End Site
                    {
                      OFFSET 0 0 0
                    }
                  }
                }
              }
            }
            JOINT Neck
            {
              OFFSET 5.0226 -0.0266342 0
              CHANNELS 3 Zrotation Xrotation Yrotation
              JOINT Head
              {
                OFFSET 6.69364 2.86102e-005 0
                CHANNELS 3 Zrotation Xrotation Yrotation
                End Site
                {
                  OFFSET 0 0 0
                }
              }
            }
          }
        }
      }
    }
  }
}
MOTION
Frames:	9
Frame Time:	0.0416667
248.064 79.44 -270.715 -146.303 54.4545 -40.8921 138.043 23.426 66.2441 -104.74 -14.3846 5.14779 50.5835 -14.1058 -9.7161 91.0845 -0.796635 -50.1189 149.714 29.9404 50.2953 -82.5006 -18.1813 15.3016 81.3248 -31.1438 -10.677 23.5544 7.44076 -2.74045 -6.8156 8.47122 -87.6609 10.2666 -12.5136 5.71502 -1.35835 -12.2503 6.26586 -24.3719 -13.643 1.6276 -4.35922 -13.643 1.6276 51.5494 -54.4434 -151.717 14.6438 1.36783 -9.28937 22.4767 15.5598 0.00709639 -11.181 1.66029 -21.1425 -48.2313 -57.636 137.53 -175.298 -16.1207 -101.711 -148.673 36.3987 -68.7747 33.0032 -19.421 -60.5907 86.3126 12.2116 -33.8087 -118.008 29.4451 16.5701 
248.451 79.4883 -271.102 -146.451 54.2361 -40.8403 138.043 23.5199 65.9774 -104.533 -16.4146 5.35373 49.6523 -14.9983 -10.6 90.3101 -2.17156 -52.9125 149.48 29.5778 50.1638 -82.8089 -17.6566 15.2076 82.2943 -33.6372 -11.1343 22.8178 8.3725 -2.21969 -6.82765 8.46838 -87.6293 10.2756 -12.523 5.77999 -1.34965 -12.2568 6.33113 -24.363 -13.6714 1.68674 -4.3504 -13.6715 1.68673 51.4116 -54.5085 -151.842 14.8957 2.70899 -8.94388 21.7178 14.4914 0.00706096 -11.5671 1.72155 -21.2255 -48.2543 -57.6648 137.489 -172.679 -16.5881 -100.823 -147.386 39.317 -70.6712 33.7041 -19.8051 -60.5481 85.944 12.2657 -34.1421 -118.614 29.0689 16.952 
249.609 79.6469 -272.272 -146.896 53.5931 -40.6829 138.04 23.7858 65.2389 -103.703 -22.9539 6.17112 46.5661 -17.7138 -13.3999 86.9425 -6.22233 -62.1871 148.94 28.5305 49.5586 -83.7306 -16.1409 14.9362 85.0095 -40.5603 -12.2435 20.8431 10.6521 -0.267302 -6.86293 8.45774 -87.535 10.3068 -12.5492 5.97489 -1.31912 -12.2745 6.52683 -24.3319 -13.7549 1.86478 -4.31924 -13.7549 1.86478 50.9841 -54.7066 -152.231 15.5137 6.5407 -7.84757 19.6091 11.4712 0.00697565 -12.7433 1.90576 -21.4281 -48.3216 -57.7572 137.363 -164.309 -17.8781 -97.7992 -141.92 48.2034 -78.0467 35.8779 -20.9691 -60.347 84.7983 12.4718 -35.1377 -120.386 27.925 18.049 
251.392 79.9833 -274.086 -147.578 52.6343 -40.4374 137.99 24.0766 64.2902 -101.535 -34.1802 8.24212 40.9959 -21.8595 -17.8676 78.1971 -11.9577 -79.1177 148.576 27.1156 48.0913 -85.3162 -13.9716 14.5437 88.6548 -49.5069 -13.3634 18.6164 12.4731 4.00749 -6.91493 8.43447 -87.3908 10.3687 -12.5849 6.27482 -1.25849 -12.297 6.8278 -24.2695 -13.879 2.14031 -4.25685 -13.879 2.14031 50.2838 -55.0191 -152.873 16.0792 11.9141 -5.99938 16.8602 7.26023 0.00689157 -14.5851 2.18648 -21.6251 -48.4118 -57.9187 137.18 -150 -19.2894 -92.1075 -124.591 61.0136 -98.6958 39.4352 -22.7878 -59.8272 82.9327 12.9234 -36.6394 -122.968 26.143 19.5844 
253.67 80.6253 -276.397 -148.443 51.4601 -40.1187 137.838 24.0663 63.3091 -96.1355 -49.5277 13.3516 33.2775 -26.6263 -22.765 61.6733 -13.1315 -102.789 148.796 25.6978 45.5749 -87.8494 -11.4367 14.0609 92.2932 -58.1582 -14.3367 17.9707 11.2112 12.2487 -6.97791 8.39197 -87.2102 10.4732 -12.624 6.65536 -1.15569 -12.3195 7.20928 -24.1632 -14.0305 2.49199 -4.15058 -14.0304 2.49199 49.3242 -55.422 -153.76 16.1573 17.9294 -3.33854 14.2076 2.44556 0.00684255 -16.9305 2.52674 -21.7104 -48.4927 -58.1769 136.971 -129.898 -19.3425 -83.419 150.151 72.4974 -36.2069 44.6522 -25.2101 -58.5662 80.402 13.7506 -38.4692 -126.01 23.87 21.277 
256.341 81.5358 -279.053 -149.438 50.1682 -39.7384 137.683 23.4554 62.1313 -82.1926 -65.7605 26.9196 26.1198 -30.7872 -25.5968 44.239 -5.37071 -126.008 149.811 24.523 42.1515 -91.6889 -8.72088 13.4782 94.6874 -65.1176 -15.9323 24.1758 3.01135 27.7727 -7.04652 8.32327 -87.0107 10.6327 -12.6632 7.08353 -0.998227 -12.3399 7.6383 -24.0005 -14.1963 2.88946 -3.98781 -14.1963 2.88945 48.1616 -55.8641 -154.852 15.3798 23.8219 0.211595 12.303 -2.5969 0.00684334 -19.4984 2.87232 -21.6522 -48.4988 -58.618 136.787 -106.398 -16.2789 -73.0427 51.1097 -40.2351 1.2567 53.5892 -27.4789 -54.6941 77.3178 15.1058 -40.3879 -129.186 21.3108 22.8769 
259.396 82.1075 -282.021 -150.519 48.849 -39.3045 137.653 22.5138 60.5728 -44.5483 -76.3767 64.96 22.3851 -33.6032 -25.7497 34.8559 2.35842 -140.461 151.914 23.7024 37.9293 -97.6958 -5.82833 12.7195 95.274 -69.9169 -19.055 47.2754 -10.9333 51.9644 -7.11435 8.22599 -86.8239 10.8497 -12.7036 7.49732 -0.783441 -12.3623 8.05298 -23.7798 -14.3589 3.27299 -3.76715 -14.3589 3.27298 47.0302 -56.2088 -155.958 13.5239 29.0916 4.64966 11.5601 -7.66092 0.00689788 -21.7512 3.16044 -21.6026 -48.266 -59.5233 136.732 -84.1556 -10.2706 -63.8587 28.2945 40.7866 0.053243 77.6651 -16.0198 -27.3267 73.9477 17.2125 -41.9944 -132.225 18.8086 24.2034 
262.741 82.4574 -285.188 -151.651 47.5768 -38.8227 137.634 21.4828 58.8257 5.61006 -75.3087 115.988 21.7759 -34.6953 -24.4953 34.4961 2.79348 -148.616 154.747 22.7399 33.4062 -104.887 -2.86034 11.7393 91.9418 -72.4319 -25.5491 77.1684 -17.7696 70.8187 -7.15603 8.10568 -86.7405 11.1046 -12.7371 7.71296 -0.52956 -12.3863 8.26965 -23.5236 -14.4555 3.469 -3.51092 -14.4555 3.46899 46.7728 -56.0777 -156.345 10.3831 33.717 9.95004 11.9415 -12.5171 0.00708783 -22.7802 3.35997 -22.0973 -47.2542 -61.9872 137.06 -66.1427 -3.97599 -57.4784 -37.0757 81.2103 -0.342326 24.7388 11.4455 38.5275 70.8902 20.8121 -42.181 -134.858 17.2574 25.1628 
266.257 82.7886 -288.451 -152.807 46.4067 -38.2964 137.509 20.4585 57.1437 26.9612 -69.499 138.396 22.6928 -34.5419 -23.1192 39.7036 -4.36506 -152.083 157.846 21.1995 29.0476 -112.176 -0.0599925 10.5747 84.4171 -72.5924 -35.3534 96.7448 -21.0826 77.3615 -7.16147 7.95216 -86.8158 11.4138 -12.7693 7.62324 -0.219496 -12.4224 8.18162 -23.2186 -14.4592 3.3728 -3.20595 -14.4592 3.37279 47.7614 -55.2696 -155.711 5.76622 37.5593 16.2201 11.0718 -17.9726 -5.54043 -21.5262 3.5075 -24.1015 -44.8462 -66.5884 138.24 -52.3021 0.294789 -53.0117 1.3893 62.8154 -44.3436 -4.57225 -0.906191 33.3784 67.9606 26.3709 -40.1539 -136.733 17.0968 25.94 
